<?xml version="1.0" encoding="iso-8859-1"?>
<!-- Generator: Adobe Illustrator 19.0.0, SVG Export Plug-In . SVG Version: 6.00 Build 0)  -->
<svg version="1.1" id="Capa_1" xmlns="http://www.w3.org/2000/svg" xmlns:xlink="http://www.w3.org/1999/xlink" x="0px" y="0px"
	 viewBox="0 0 496 496" style="enable-background:new 0 0 496 496;" xml:space="preserve">
<g>
	<g>
		<path d="M301.088,38.304C293.656,16.08,272.688,0,248,0s-45.656,16.08-53.088,38.304C90.984,62.696,16,156.728,16,264
			c0,127.928,104.08,232,232,232s232-104.072,232-232C480,156.728,405.016,62.696,301.088,38.304z M248,16c22.056,0,40,17.944,40,40
			c0,22.056-17.944,40-40,40c-22.056,0-40-17.944-40-40C208,33.944,225.944,16,248,16z M264,288v48c0,8.824-7.176,16-16,16
			c-8.824,0-16-7.176-16-16v-48h-80v48c0,8.824-7.176,16-16,16c-8.824,0-16-7.176-16-16V192c0-8.824,7.176-16,16-16
			c8.824,0,16,7.176,16,16v48h64v32h64v-32h64v-48c0-8.824,7.176-16,16-16c8.824,0,16,7.176,16,16v144c0,8.824-7.176,16-16,16
			c-8.824,0-16-7.176-16-16v-48H264z M232,256V109.64c5.072,1.52,10.44,2.36,16,2.36s10.928-0.84,16-2.36V256H232z M248,480
			c-119.104,0-216-96.896-216-216c0-97.608,66.688-183.392,160.024-208.44c0,0.152-0.024,0.296-0.024,0.44
			c0,5.4,0.808,10.608,2.248,15.56C107.728,95.552,48,173.32,48,264c0,110.28,89.72,200,200,200
			c49.288,0,96.64-18.088,133.336-50.928l-10.672-11.92C336.904,431.36,293.344,448,248,448c-101.464,0-184-82.544-184-184
			c0-84.28,56.064-156.44,136.968-177.712c3.96,6.128,9.064,11.432,15.032,15.6V224h-48v-32c0-17.648-14.352-32-32-32
			s-32,14.352-32,32v144c0,17.648,14.352,32,32,32s32-14.352,32-32v-32h48v32c0,17.648,14.352,32,32,32s32-14.352,32-32v-32h48v32
			c0,17.648,14.352,32,32,32s32-14.352,32-32V192c0-17.648-14.352-32-32-32s-32,14.352-32,32v32h-48V101.888
			c5.968-4.176,11.072-9.48,15.032-15.6C375.936,107.56,432,179.72,432,264c0,42.304-13.952,82.064-40.352,115l12.488,10.008
			C432.424,353.712,448,309.328,448,264c0-90.68-59.728-168.448-146.248-192.44C303.192,66.608,304,61.4,304,56
			c0-0.144-0.024-0.288-0.024-0.44C397.312,80.608,464,166.392,464,264C464,383.104,367.104,480,248,480z"/>
	</g>
</g>
<g>
</g>
<g>
</g>
<g>
</g>
<g>
</g>
<g>
</g>
<g>
</g>
<g>
</g>
<g>
</g>
<g>
</g>
<g>
</g>
<g>
</g>
<g>
</g>
<g>
</g>
<g>
</g>
<g>
</g>
</svg>
